<mxfile host="app.diagrams.net" modified="2024-03-07T23:52:47.332Z" agent="Mozilla/5.0 (Windows NT 10.0; Win64; x64) AppleWebKit/537.36 (KHTML, like Gecko) Chrome/122.0.0.0 Safari/537.36" etag="4vY6T2Sz0zZXqVrAQiVp" version="23.1.1" type="device">
  <diagram name="Page-1" id="9f46799a-70d6-7492-0946-bef42562c5a5">
    <mxGraphModel dx="2534" dy="772" grid="1" gridSize="10" guides="1" tooltips="1" connect="1" arrows="1" fold="1" page="1" pageScale="1" pageWidth="1100" pageHeight="850" background="none" math="0" shadow="0">
      <root>
        <mxCell id="0" />
        <mxCell id="1" parent="0" />
        <mxCell id="2U287zVSWnUIkDpsfmkm-1" value="Commander" style="html=1;whiteSpace=wrap;" vertex="1" parent="1">
          <mxGeometry x="-1100" width="360" height="50" as="geometry" />
        </mxCell>
        <mxCell id="2U287zVSWnUIkDpsfmkm-2" value="GUI" style="html=1;whiteSpace=wrap;" vertex="1" parent="1">
          <mxGeometry x="-360" width="360" height="50" as="geometry" />
        </mxCell>
        <mxCell id="2U287zVSWnUIkDpsfmkm-3" value="Emissions Controller" style="html=1;whiteSpace=wrap;" vertex="1" parent="1">
          <mxGeometry x="-730" width="360" height="50" as="geometry" />
        </mxCell>
        <mxCell id="2U287zVSWnUIkDpsfmkm-5" value="" style="html=1;points=[[0,0,0,0,5],[0,1,0,0,-5],[1,0,0,0,5],[1,1,0,0,-5]];perimeter=orthogonalPerimeter;outlineConnect=0;targetShapes=umlLifeline;portConstraint=eastwest;newEdgeStyle={&quot;curved&quot;:0,&quot;rounded&quot;:0};" vertex="1" parent="1">
          <mxGeometry x="-740" width="10" height="850" as="geometry" />
        </mxCell>
        <mxCell id="2U287zVSWnUIkDpsfmkm-6" value="" style="html=1;points=[[0,0,0,0,5],[0,1,0,0,-5],[1,0,0,0,5],[1,1,0,0,-5]];perimeter=orthogonalPerimeter;outlineConnect=0;targetShapes=umlLifeline;portConstraint=eastwest;newEdgeStyle={&quot;curved&quot;:0,&quot;rounded&quot;:0};" vertex="1" parent="1">
          <mxGeometry x="-370" width="10" height="850" as="geometry" />
        </mxCell>
        <mxCell id="2U287zVSWnUIkDpsfmkm-11" value="" style="ellipse;html=1;shape=endState;fillColor=#000000;strokeColor=#ff0000;" vertex="1" parent="1">
          <mxGeometry x="-940" y="802" width="30" height="30" as="geometry" />
        </mxCell>
        <mxCell id="2U287zVSWnUIkDpsfmkm-12" value="Direct EM Emissions Planning" style="rounded=1;whiteSpace=wrap;html=1;arcSize=40;fontColor=#000000;fillColor=#ffffc0;strokeColor=#ff0000;" vertex="1" parent="1">
          <mxGeometry x="-985" y="152" width="120" height="40" as="geometry" />
        </mxCell>
        <mxCell id="2U287zVSWnUIkDpsfmkm-13" value="" style="edgeStyle=orthogonalEdgeStyle;html=1;verticalAlign=bottom;endArrow=open;endSize=8;strokeColor=#ff0000;rounded=0;entryX=0;entryY=0.5;entryDx=0;entryDy=0;" edge="1" source="2U287zVSWnUIkDpsfmkm-12" parent="1" target="2U287zVSWnUIkDpsfmkm-28">
          <mxGeometry relative="1" as="geometry">
            <mxPoint x="-700" y="172" as="targetPoint" />
          </mxGeometry>
        </mxCell>
        <mxCell id="2U287zVSWnUIkDpsfmkm-15" value="" style="ellipse;html=1;shape=startState;fillColor=#000000;strokeColor=#ff0000;" vertex="1" parent="1">
          <mxGeometry x="-940" y="63" width="30" height="30" as="geometry" />
        </mxCell>
        <mxCell id="2U287zVSWnUIkDpsfmkm-16" value="" style="edgeStyle=orthogonalEdgeStyle;html=1;verticalAlign=bottom;endArrow=open;endSize=8;strokeColor=#ff0000;rounded=0;" edge="1" source="2U287zVSWnUIkDpsfmkm-15" parent="1">
          <mxGeometry relative="1" as="geometry">
            <mxPoint x="-925" y="153" as="targetPoint" />
          </mxGeometry>
        </mxCell>
        <mxCell id="2U287zVSWnUIkDpsfmkm-20" value="Mapping" style="rounded=1;whiteSpace=wrap;html=1;arcSize=40;fontColor=#000000;fillColor=#ffffc0;strokeColor=#ff0000;" vertex="1" parent="1">
          <mxGeometry x="-230" y="167" width="120" height="40" as="geometry" />
        </mxCell>
        <mxCell id="2U287zVSWnUIkDpsfmkm-21" value="Capabilities Database" style="rounded=1;whiteSpace=wrap;html=1;arcSize=40;fontColor=#000000;fillColor=#ffffc0;strokeColor=#ff0000;" vertex="1" parent="1">
          <mxGeometry x="-230" y="267" width="120" height="40" as="geometry" />
        </mxCell>
        <mxCell id="2U287zVSWnUIkDpsfmkm-22" value="Graphic Overlay" style="rounded=1;whiteSpace=wrap;html=1;arcSize=40;fontColor=#000000;fillColor=#ffffc0;strokeColor=#ff0000;" vertex="1" parent="1">
          <mxGeometry x="-230" y="217" width="120" height="40" as="geometry" />
        </mxCell>
        <mxCell id="2U287zVSWnUIkDpsfmkm-23" value="" style="shape=line;html=1;strokeWidth=6;strokeColor=#ff0000;rotation=-90;" vertex="1" parent="1">
          <mxGeometry x="-327.5" y="228.5" width="175" height="10" as="geometry" />
        </mxCell>
        <mxCell id="2U287zVSWnUIkDpsfmkm-24" value="" style="edgeStyle=orthogonalEdgeStyle;html=1;verticalAlign=bottom;endArrow=open;endSize=8;strokeColor=#ff0000;rounded=0;exitX=0.411;exitY=0.6;exitDx=0;exitDy=0;exitPerimeter=0;entryX=1;entryY=0.5;entryDx=0;entryDy=0;" edge="1" source="2U287zVSWnUIkDpsfmkm-26" parent="1" target="2U287zVSWnUIkDpsfmkm-29">
          <mxGeometry relative="1" as="geometry">
            <mxPoint x="-90" y="370" as="targetPoint" />
            <mxPoint x="-40" y="217" as="sourcePoint" />
            <Array as="points">
              <mxPoint x="-40" y="249" />
              <mxPoint x="-40" y="370" />
            </Array>
          </mxGeometry>
        </mxCell>
        <mxCell id="2U287zVSWnUIkDpsfmkm-26" value="" style="shape=line;html=1;strokeWidth=6;strokeColor=#ff0000;rotation=-90;" vertex="1" parent="1">
          <mxGeometry x="-187.5" y="228.5" width="175" height="10" as="geometry" />
        </mxCell>
        <mxCell id="2U287zVSWnUIkDpsfmkm-27" value="Input Data and Parameters" style="rounded=1;whiteSpace=wrap;html=1;arcSize=40;fontColor=#000000;fillColor=#ffffc0;strokeColor=#ff0000;" vertex="1" parent="1">
          <mxGeometry x="-620" y="230" width="120" height="40" as="geometry" />
        </mxCell>
        <mxCell id="2U287zVSWnUIkDpsfmkm-28" value="Analyze Mission Parameters" style="rounded=1;whiteSpace=wrap;html=1;arcSize=40;fontColor=#000000;fillColor=#ffffc0;strokeColor=#ff0000;" vertex="1" parent="1">
          <mxGeometry x="-620" y="152" width="120" height="40" as="geometry" />
        </mxCell>
        <mxCell id="2U287zVSWnUIkDpsfmkm-29" value="Output Data Overlay Visuals" style="rounded=1;whiteSpace=wrap;html=1;arcSize=40;fontColor=#000000;fillColor=#ffffc0;strokeColor=#ff0000;" vertex="1" parent="1">
          <mxGeometry x="-230" y="350" width="120" height="40" as="geometry" />
        </mxCell>
        <mxCell id="2U287zVSWnUIkDpsfmkm-30" value="Refine Data Visualization" style="rounded=1;whiteSpace=wrap;html=1;arcSize=40;fontColor=#000000;fillColor=#ffffc0;strokeColor=#ff0000;" vertex="1" parent="1">
          <mxGeometry x="-620" y="440" width="120" height="40" as="geometry" />
        </mxCell>
        <mxCell id="2U287zVSWnUIkDpsfmkm-31" value="Input Decision Support Matrix" style="rounded=1;whiteSpace=wrap;html=1;arcSize=40;fontColor=#000000;fillColor=#ffffc0;strokeColor=#ff0000;" vertex="1" parent="1">
          <mxGeometry x="-620" y="595" width="120" height="40" as="geometry" />
        </mxCell>
        <mxCell id="2U287zVSWnUIkDpsfmkm-32" value="Make Informed Decision" style="rounded=1;whiteSpace=wrap;html=1;arcSize=40;fontColor=#000000;fillColor=#ffffc0;strokeColor=#ff0000;" vertex="1" parent="1">
          <mxGeometry x="-985" y="720" width="120" height="40" as="geometry" />
        </mxCell>
        <mxCell id="2U287zVSWnUIkDpsfmkm-33" value="Analyze EM Emissions Plan" style="rounded=1;whiteSpace=wrap;html=1;arcSize=40;fontColor=#000000;fillColor=#ffffc0;strokeColor=#ff0000;" vertex="1" parent="1">
          <mxGeometry x="-620" y="350" width="120" height="40" as="geometry" />
        </mxCell>
        <mxCell id="2U287zVSWnUIkDpsfmkm-34" value="Make EM Emissions Recommendations" style="rounded=1;whiteSpace=wrap;html=1;arcSize=40;fontColor=#000000;fillColor=#ffffc0;strokeColor=#ff0000;" vertex="1" parent="1">
          <mxGeometry x="-620" y="520" width="120" height="40" as="geometry" />
        </mxCell>
        <mxCell id="2U287zVSWnUIkDpsfmkm-35" value="Use Decision Support Matrix" style="rounded=1;whiteSpace=wrap;html=1;arcSize=40;fontColor=#000000;fillColor=#ffffc0;strokeColor=#ff0000;" vertex="1" parent="1">
          <mxGeometry x="-985" y="640" width="120" height="40" as="geometry" />
        </mxCell>
        <mxCell id="2U287zVSWnUIkDpsfmkm-36" value="Decision Support Matrix input into Common Operating Picture" style="rounded=1;whiteSpace=wrap;html=1;arcSize=40;fontColor=#000000;fillColor=#ffffc0;strokeColor=#ff0000;" vertex="1" parent="1">
          <mxGeometry x="-230" y="580" width="120" height="70" as="geometry" />
        </mxCell>
        <mxCell id="2U287zVSWnUIkDpsfmkm-41" value="" style="edgeStyle=orthogonalEdgeStyle;html=1;verticalAlign=bottom;endArrow=open;endSize=8;strokeColor=#ff0000;rounded=0;" edge="1" parent="1">
          <mxGeometry relative="1" as="geometry">
            <mxPoint x="-243" y="250" as="targetPoint" />
            <mxPoint x="-500" y="249.41" as="sourcePoint" />
            <Array as="points">
              <mxPoint x="-400" y="249" />
              <mxPoint x="-243" y="250" />
            </Array>
          </mxGeometry>
        </mxCell>
        <mxCell id="2U287zVSWnUIkDpsfmkm-43" value="" style="edgeStyle=orthogonalEdgeStyle;html=1;verticalAlign=bottom;endArrow=open;endSize=8;strokeColor=#ff0000;rounded=0;exitX=0;exitY=0.5;exitDx=0;exitDy=0;entryX=1;entryY=0.5;entryDx=0;entryDy=0;" edge="1" parent="1" source="2U287zVSWnUIkDpsfmkm-29" target="2U287zVSWnUIkDpsfmkm-33">
          <mxGeometry relative="1" as="geometry">
            <mxPoint x="-510" y="365" as="targetPoint" />
            <mxPoint x="-240" y="360" as="sourcePoint" />
            <Array as="points" />
          </mxGeometry>
        </mxCell>
        <mxCell id="2U287zVSWnUIkDpsfmkm-44" value="" style="edgeStyle=orthogonalEdgeStyle;html=1;verticalAlign=bottom;endArrow=open;endSize=8;strokeColor=#ff0000;rounded=0;exitX=1;exitY=0.5;exitDx=0;exitDy=0;" edge="1" parent="1" source="2U287zVSWnUIkDpsfmkm-31">
          <mxGeometry relative="1" as="geometry">
            <mxPoint x="-230" y="615.31" as="targetPoint" />
            <mxPoint x="-487" y="614.72" as="sourcePoint" />
            <Array as="points">
              <mxPoint x="-387" y="615" />
            </Array>
          </mxGeometry>
        </mxCell>
        <mxCell id="2U287zVSWnUIkDpsfmkm-45" value="" style="edgeStyle=orthogonalEdgeStyle;html=1;verticalAlign=bottom;endArrow=open;endSize=8;strokeColor=#ff0000;rounded=0;exitX=0.411;exitY=0.6;exitDx=0;exitDy=0;exitPerimeter=0;entryX=1;entryY=0.5;entryDx=0;entryDy=0;" edge="1" parent="1" target="2U287zVSWnUIkDpsfmkm-35">
          <mxGeometry relative="1" as="geometry">
            <mxPoint x="-810" y="660" as="targetPoint" />
            <mxPoint x="-109" y="620" as="sourcePoint" />
            <Array as="points">
              <mxPoint x="-50" y="620" />
              <mxPoint x="-50" y="660" />
            </Array>
          </mxGeometry>
        </mxCell>
        <mxCell id="2U287zVSWnUIkDpsfmkm-46" value="" style="edgeStyle=orthogonalEdgeStyle;html=1;verticalAlign=bottom;endArrow=open;endSize=8;strokeColor=#ff0000;rounded=0;entryX=0.5;entryY=0;entryDx=0;entryDy=0;" edge="1" parent="1" target="2U287zVSWnUIkDpsfmkm-27">
          <mxGeometry relative="1" as="geometry">
            <mxPoint x="-560.17" y="222" as="targetPoint" />
            <mxPoint x="-560.17" y="192" as="sourcePoint" />
          </mxGeometry>
        </mxCell>
        <mxCell id="2U287zVSWnUIkDpsfmkm-47" value="" style="edgeStyle=orthogonalEdgeStyle;html=1;verticalAlign=bottom;endArrow=open;endSize=8;strokeColor=#ff0000;rounded=0;entryX=0.5;entryY=0;entryDx=0;entryDy=0;" edge="1" parent="1" target="2U287zVSWnUIkDpsfmkm-30">
          <mxGeometry relative="1" as="geometry">
            <mxPoint x="-560.1800000000001" y="428" as="targetPoint" />
            <mxPoint x="-560.35" y="390" as="sourcePoint" />
          </mxGeometry>
        </mxCell>
        <mxCell id="2U287zVSWnUIkDpsfmkm-48" value="" style="edgeStyle=orthogonalEdgeStyle;html=1;verticalAlign=bottom;endArrow=open;endSize=8;strokeColor=#ff0000;rounded=0;" edge="1" parent="1">
          <mxGeometry relative="1" as="geometry">
            <mxPoint x="-560" y="520" as="targetPoint" />
            <mxPoint x="-560.4300000000001" y="480" as="sourcePoint" />
          </mxGeometry>
        </mxCell>
        <mxCell id="2U287zVSWnUIkDpsfmkm-49" value="" style="edgeStyle=orthogonalEdgeStyle;html=1;verticalAlign=bottom;endArrow=open;endSize=8;strokeColor=#ff0000;rounded=0;entryX=0.5;entryY=0;entryDx=0;entryDy=0;" edge="1" parent="1" target="2U287zVSWnUIkDpsfmkm-31">
          <mxGeometry relative="1" as="geometry">
            <mxPoint x="-560" y="590" as="targetPoint" />
            <mxPoint x="-560.47" y="560" as="sourcePoint" />
          </mxGeometry>
        </mxCell>
        <mxCell id="2U287zVSWnUIkDpsfmkm-50" value="" style="edgeStyle=orthogonalEdgeStyle;html=1;verticalAlign=bottom;endArrow=open;endSize=8;strokeColor=#ff0000;rounded=0;entryX=0.5;entryY=0;entryDx=0;entryDy=0;" edge="1" parent="1" target="2U287zVSWnUIkDpsfmkm-32">
          <mxGeometry relative="1" as="geometry">
            <mxPoint x="-925.03" y="715" as="targetPoint" />
            <mxPoint x="-925.5" y="680" as="sourcePoint" />
          </mxGeometry>
        </mxCell>
        <mxCell id="2U287zVSWnUIkDpsfmkm-51" value="" style="edgeStyle=orthogonalEdgeStyle;html=1;verticalAlign=bottom;endArrow=open;endSize=8;strokeColor=#ff0000;rounded=0;" edge="1" parent="1">
          <mxGeometry relative="1" as="geometry">
            <mxPoint x="-925" y="800" as="targetPoint" />
            <mxPoint x="-925.5" y="760" as="sourcePoint" />
          </mxGeometry>
        </mxCell>
      </root>
    </mxGraphModel>
  </diagram>
</mxfile>
